<?xml version="1.0" encoding="utf-8"?>
<!-- Generator: Adobe Illustrator 23.0.1, SVG Export Plug-In . SVG Version: 6.00 Build 0)  -->
<svg version="1.1" id="Layer_1" xmlns="http://www.w3.org/2000/svg" xmlns:xlink="http://www.w3.org/1999/xlink" x="0px" y="0px"
	 viewBox="0 0 155 38" style="enable-background:new 0 0 155 38;" xml:space="preserve">
<style type="text/css">
	.st0{fill:#FFFFFF;}
</style>
<g>
	<g id="JFGE96_1_">
		<g>
			
		</g>
	</g>
	<g>
		<path class="st0" d="M57,14.1c-0.9-3.9-3.3-6.5-7.2-7.4c-3.8-0.9-7.1,0.2-9.6,3.2c-2.6,3.1-3,6.6-1.4,10.3
			c1.3,3.1,2.8,6.2,4.1,9.3c1.2,2.7,2.4,5.4,3.7,8.2c0.3-0.6,0.6-1,0.8-1.4C50.3,31,53,25.8,56,20.7C57.2,18.7,57.5,16.4,57,14.1z
			 M47.5,22c-3.4,0-6.1-2.8-6.1-6.2c0-3.4,2.8-6,6.3-6c3.3,0,6,2.8,5.9,6.2C53.7,19.4,50.9,22.1,47.5,22z"/>
		<path class="st0" d="M51.5,14.5h-2.4v-2.4c0-0.2-0.2-0.4-0.4-0.4h-2.3c-0.2,0-0.4,0.2-0.4,0.4v2.4h-2.4c-0.2,0-0.4,0.2-0.4,0.4
			v2.3c0,0.2,0.2,0.4,0.4,0.4H46V20c0,0.2,0.2,0.4,0.4,0.4h2.3c0.2,0,0.4-0.2,0.4-0.4v-2.4h2.4c0.2,0,0.4-0.2,0.4-0.4v-2.3
			C52,14.7,51.8,14.5,51.5,14.5z"/>
	</g>
</g>
</svg>
