<?xml version="1.0" encoding="utf-8"?>
<!-- Generator: Adobe Illustrator 23.0.1, SVG Export Plug-In . SVG Version: 6.00 Build 0)  -->
<svg version="1.1" id="Layer_1" xmlns="http://www.w3.org/2000/svg" xmlns:xlink="http://www.w3.org/1999/xlink" x="0px" y="0px"
	 viewBox="0 0 155 38" style="enable-background:new 0 0 155 38;" xml:space="preserve">
<style type="text/css">
	.st0{fill:#FFFFFF;}
</style>
<g>
	<g id="JFGE96_1_">
		<g>
			<path class="st0" d="M121.3,26.8c-3.4,0-8.3-1.2-12.8-3.8c-0.5-0.3-0.9-0.6-1.4-1c-0.3-0.2-0.5-0.4-0.4-0.8
				c0.2-0.4,0.6-0.2,0.9-0.1c0.7,0.2,1.4,0.5,2.1,0.7c4.1,1.2,8.3,2,12.6,1.9c4.4-0.2,8.7-1,12.4-3.7c2.7-2,4.1-4.6,3.3-8
				c-0.4-1.9-1.7-3.3-3.2-4.4c-2.4-1.7-5.2-2.5-8.1-3c-4.8-0.9-9.3,0.3-13.7,2.1c-1.1,0.4-2.2,0.9-3.3,1.3c-0.4,0.1-0.9,0.3-1.2-0.1
				c-0.3-0.4-0.1-0.9,0.2-1.2c1.3-1.8,2.9-3.2,4.9-4c8.3-3.4,16.3-2.9,23.7,2.5c4.2,3.1,5.5,8.5,3.5,12.9c-1.3,2.8-3.5,4.7-6.2,6.1
				C131.2,25.9,127.4,26.8,121.3,26.8z"/>
			<path class="st0" d="M120.4,17.5c0-3.6,0-7,0.5-10.4c0.2-1.6,0.8-1.9,2.2-0.9c0.8,0.6,1.4,1.3,1.3,2.4c-0.4,3-0.3,6.1-0.6,9.1
				c-0.1,1.6-0.5,3.2-1.4,4.6c-0.3,0.4-0.6,0.9-1.1,0.8c-0.5-0.1-0.5-0.7-0.6-1.1C120.4,20.4,120.4,18.8,120.4,17.5z"/>
			<path class="st0" d="M146.8,21.5c-0.1-1.1,0.2-2.1,0.4-3.1c0-0.2,0.3-0.4-0.1-0.5c-0.2-0.1-0.5,0-0.6,0.3
				c-0.1,0.2-0.1,0.3-0.2,0.4c-0.3,0.3-0.6,0.3-1,0.2c-0.4-0.2-0.4-0.5-0.2-0.8c0.2-0.4,0.2-0.8,0-1.2c-0.3-0.7-0.1-1.4,0.5-1.9
				c0.5-0.5,1.1-0.6,1.7-0.4c0.6,0.3,0.5,0.9,0.3,1.3c-0.2,0.6,0,0.7,0.6,0.6c2.2-0.2,2.4-0.1,1.9,2.1c-0.2,1.1-0.5,2.3-0.4,3.5
				c0,0.5-0.2,1.2,0.4,1.3c0.5,0.1,0.7-0.6,0.9-1c0.8-1.5,1.4-3,1.8-4.6c0.1-0.6,0.4-1,1-0.9c0.7,0.1,0.6,0.7,0.5,1.2
				c-0.4,2-1.1,3.9-2.2,5.6c-0.6,0.9-1.4,1.8-2.7,1.8c-1,0-1.5-0.3-1.9-1.2C146.8,23.4,146.7,22.4,146.8,21.5z"/>
		</g>
	</g>
	<path class="st0" d="M9,23.3c-1.5,0-2.9-0.3-4.3-0.8c-1.4-0.5-2.7-1.3-3.8-2.3l2.5-3C4.3,18,5.2,18.6,6.1,19c0.9,0.4,1.9,0.6,3,0.6
		c0.9,0,1.6-0.2,2-0.5c0.5-0.3,0.7-0.8,0.7-1.3v-0.1c0-0.3-0.1-0.5-0.2-0.7c-0.1-0.2-0.3-0.4-0.6-0.6c-0.3-0.2-0.7-0.4-1.2-0.5
		c-0.5-0.2-1.2-0.4-2-0.6c-1-0.2-1.8-0.5-2.6-0.8c-0.8-0.3-1.5-0.7-2-1.1c-0.5-0.4-1-1-1.3-1.6c-0.3-0.6-0.5-1.4-0.5-2.4V9.4
		c0-0.9,0.2-1.7,0.5-2.4c0.3-0.7,0.8-1.3,1.4-1.8C4.1,4.7,4.8,4.3,5.6,4c0.8-0.3,1.7-0.4,2.7-0.4c1.4,0,2.7,0.2,3.9,0.6
		c1.2,0.4,2.3,1,3.2,1.8l-2.2,3.2c-0.9-0.6-1.7-1-2.5-1.4C9.9,7.5,9.1,7.3,8.3,7.3S6.8,7.5,6.4,7.8C6,8.1,5.8,8.5,5.8,9v0.1
		c0,0.3,0.1,0.6,0.2,0.8c0.1,0.2,0.3,0.4,0.6,0.6c0.3,0.2,0.7,0.4,1.3,0.5c0.5,0.2,1.2,0.4,2,0.6c1,0.3,1.8,0.5,2.6,0.9
		c0.8,0.3,1.4,0.7,1.9,1.1c0.5,0.4,0.9,1,1.2,1.6c0.3,0.6,0.4,1.3,0.4,2.2v0.1c0,0.9-0.2,1.8-0.5,2.5c-0.3,0.7-0.8,1.4-1.4,1.9
		c-0.6,0.5-1.4,0.9-2.2,1.1C11,23.2,10.1,23.3,9,23.3z"/>
	<path class="st0" d="M26.5,23.4c-1.1,0-2.2-0.2-3.1-0.6c-1-0.4-1.8-0.9-2.5-1.6c-0.7-0.7-1.3-1.5-1.7-2.4c-0.4-0.9-0.6-1.9-0.6-3
		v-0.1c0-1.1,0.2-2,0.6-3c0.4-0.9,1-1.7,1.7-2.4c0.7-0.7,1.6-1.2,2.5-1.6c1-0.4,2-0.6,3.2-0.6c1.1,0,2.2,0.2,3.1,0.6
		c1,0.4,1.8,0.9,2.5,1.6c0.7,0.7,1.3,1.5,1.7,2.4c0.4,0.9,0.6,1.9,0.6,3v0.1c0,1.1-0.2,2-0.6,3c-0.4,0.9-1,1.7-1.7,2.4
		c-0.7,0.7-1.6,1.2-2.5,1.6C28.7,23.2,27.6,23.4,26.5,23.4z M26.5,19.8c0.6,0,1.1-0.1,1.6-0.3c0.5-0.2,0.9-0.5,1.2-0.9
		c0.3-0.4,0.6-0.8,0.8-1.3c0.2-0.5,0.3-1,0.3-1.5v-0.1c0-0.5-0.1-1.1-0.3-1.5c-0.2-0.5-0.4-0.9-0.8-1.3c-0.3-0.4-0.8-0.7-1.2-0.9
		c-0.5-0.2-1-0.3-1.6-0.3c-0.6,0-1.1,0.1-1.6,0.3c-0.5,0.2-0.9,0.5-1.2,0.9c-0.3,0.4-0.6,0.8-0.8,1.3c-0.2,0.5-0.3,1-0.3,1.5v0.1
		c0,0.5,0.1,1.1,0.3,1.5c0.2,0.5,0.4,0.9,0.8,1.3c0.3,0.4,0.8,0.7,1.2,0.9C25.4,19.7,25.9,19.8,26.5,19.8z"/>
	<path class="st0" d="M60.5,8.4h4.2v2.1c0.5-0.7,1.1-1.3,1.8-1.7c0.7-0.4,1.6-0.7,2.7-0.7c0.9,0,1.7,0.2,2.5,0.5
		c0.8,0.3,1.5,0.8,2.1,1.5c0.6,0.6,1.1,1.4,1.5,2.4c0.4,0.9,0.6,2,0.6,3.2v0.1c0,1.2-0.2,2.3-0.6,3.2c-0.4,0.9-0.9,1.7-1.5,2.4
		c-0.6,0.6-1.3,1.1-2.1,1.5c-0.8,0.3-1.6,0.5-2.5,0.5c-1.1,0-2-0.2-2.8-0.7c-0.7-0.4-1.3-0.9-1.8-1.5v6.3h-4.2V8.4z M68.2,19.8
		c0.5,0,1-0.1,1.4-0.3c0.4-0.2,0.8-0.5,1.1-0.8c0.3-0.4,0.6-0.8,0.8-1.3c0.2-0.5,0.3-1,0.3-1.7v-0.1c0-0.6-0.1-1.2-0.3-1.7
		c-0.2-0.5-0.5-0.9-0.8-1.3c-0.3-0.4-0.7-0.6-1.1-0.8c-0.4-0.2-0.9-0.3-1.4-0.3s-1,0.1-1.4,0.3c-0.4,0.2-0.8,0.5-1.1,0.8
		c-0.3,0.4-0.6,0.8-0.8,1.3c-0.2,0.5-0.3,1.1-0.3,1.7v0.1c0,0.6,0.1,1.2,0.3,1.7c0.2,0.5,0.4,0.9,0.8,1.3c0.3,0.4,0.7,0.6,1.1,0.8
		C67.3,19.7,67.7,19.8,68.2,19.8z"/>
	<path class="st0" d="M86.2,23.4c-1.1,0-2.1-0.2-3.1-0.5c-0.9-0.4-1.8-0.9-2.4-1.6c-0.7-0.7-1.2-1.5-1.6-2.4
		c-0.4-0.9-0.6-1.9-0.6-3.1v-0.1c0-1,0.2-2,0.5-3c0.4-0.9,0.9-1.7,1.5-2.4c0.6-0.7,1.4-1.2,2.3-1.6c0.9-0.4,1.9-0.6,2.9-0.6
		c1.2,0,2.3,0.2,3.2,0.7c0.9,0.4,1.6,1,2.2,1.8c0.6,0.7,1,1.6,1.3,2.5c0.3,1,0.4,2,0.4,3c0,0.2,0,0.3,0,0.5c0,0.2,0,0.4,0,0.6H82.6
		c0.2,0.9,0.6,1.7,1.2,2.1c0.6,0.5,1.4,0.7,2.3,0.7c0.7,0,1.3-0.1,1.9-0.4c0.5-0.2,1.1-0.6,1.7-1.1l2.4,2.1c-0.7,0.9-1.5,1.5-2.5,2
		C88.7,23.1,87.5,23.4,86.2,23.4z M88.9,14.6c-0.1-0.9-0.5-1.7-1-2.3c-0.5-0.6-1.2-0.9-2.1-0.9c-0.9,0-1.6,0.3-2.1,0.8
		c-0.5,0.6-0.9,1.3-1.1,2.3H88.9z"/>
	<path class="st0" d="M95.8,8.4h4.2v3c0.4-1,1-1.8,1.7-2.4c0.7-0.6,1.7-0.9,3-0.8v4.4h-0.2c-1.4,0-2.5,0.4-3.3,1.3
		c-0.8,0.8-1.2,2.1-1.2,3.9v5.4h-4.2V8.4z"/>
	<g>
		<path class="st0" d="M57,14.1c-0.9-3.9-3.3-6.5-7.2-7.4c-3.8-0.9-7.1,0.2-9.6,3.2c-2.6,3.1-3,6.6-1.4,10.3
			c1.3,3.1,2.8,6.2,4.1,9.3c1.2,2.7,2.4,5.4,3.7,8.2c0.3-0.6,0.6-1,0.8-1.4C50.3,31,53,25.8,56,20.7C57.2,18.7,57.5,16.4,57,14.1z
			 M47.5,22c-3.4,0-6.1-2.8-6.1-6.2c0-3.4,2.8-6,6.3-6c3.3,0,6,2.8,5.9,6.2C53.7,19.4,50.9,22.1,47.5,22z"/>
		<path class="st0" d="M51.5,14.5h-2.4v-2.4c0-0.2-0.2-0.4-0.4-0.4h-2.3c-0.2,0-0.4,0.2-0.4,0.4v2.4h-2.4c-0.2,0-0.4,0.2-0.4,0.4
			v2.3c0,0.2,0.2,0.4,0.4,0.4H46V20c0,0.2,0.2,0.4,0.4,0.4h2.3c0.2,0,0.4-0.2,0.4-0.4v-2.4h2.4c0.2,0,0.4-0.2,0.4-0.4v-2.3
			C52,14.7,51.8,14.5,51.5,14.5z"/>
	</g>
</g>
</svg>
